 <svg version="1.0" xmlns="http://www.w3.org/2000/svg"  width="600.000000pt" height="594.000000pt" viewBox="0 0 600.000000 594.000000"  preserveAspectRatio="xMidYMid meet">  <g transform="translate(0.000000,594.000000) scale(0.100000,-0.100000)" fill="#930614" stroke="none"> <path d="M2835 5873 c-167 -4 -477 -57 -685 -116 -201 -58 -475 -176 -640 -276 -19 -11 -42 -24 -50 -28 -27 -12 -234 -154 -280 -192 -81 -65 -93 -75 -194 -167 -56 -50 -128 -122 -161 -160 -32 -38 -66 -76 -75 -85 -72 -75 -239 -303 -280 -384 -6 -11 -20 -36 -31 -55 -85 -140 -204 -409 -252 -565 -103 -344 -142 -614 -134 -936 7 -309 41 -514 134 -824 47 -155 163 -417 243 -550 16 -27 33 -56 37 -64 20 -42 155 -236 226 -323 45 -56 138 -158 207 -227 129 -129 148 -147 235 -215 28 -22 52 -43 55 -46 7 -10 225 -157 285 -193 185 -111 420 -215 625 -277 36 -11 85 -26 110 -34 25 -8 81 -21 125 -30 44 -9 101 -21 126 -27 25 -5 84 -14 130 -19 46 -5 131 -15 189 -21 219 -24 624 8 863 67 207 51 253 65 400 120 151 57 332 147 493 245 403 246 731 580 991 1009 33 54 143 274 174 345 165 389 258 941 220 1300 -6 55 -15 140 -21 190 -5 49 -14 110 -19 135 -5 25 -17 81 -27 125 -27 127 -82 314 -119 400 -7 17 -20 50 -30 75 -20 50 -138 293 -158 325 -6 11 -24 39 -39 63 -16 24 -28 45 -28 47 0 13 -182 263 -239 330 -34 38 -308 312 -346 346 -54 46 -229 175 -300 220 -61 39 -98 62 -190 116 -32 19 -220 109 -270 129 -16 6 -41 17 -55 23 -43 18 -199 71 -280 94 -295 85 -591 119 -965 110z m505 -263 c408 -37 826 -187 1183 -427 188 -126 254 -180 407 -333 267 -266 470 -569 605 -905 77 -190 134 -405 171 -650 25 -168 23 -518 -5 -700 -29 -184 -64 -342 -102 -451 -17 -49 -40 -114 -50 -144 -38 -109 -179 -378 -274 -520 -53 -79 -99 -147 -103 -150 -5 -3 -29 -32 -54 -65 -46 -61 -249 -271 -323 -336 -101 -88 -241 -190 -358 -261 -120 -73 -345 -191 -412 -216 -16 -6 -61 -23 -100 -38 -38 -15 -90 -33 -115 -40 -25 -7 -76 -21 -115 -32 -71 -21 -178 -42 -340 -69 -234 -38 -686 -25 -910 27 -203 47 -279 69 -465 135 -75 27 -304 140 -397 196 -256 154 -525 388 -688 599 -36 47 -78 101 -93 120 -54 68 -166 256 -214 360 -27 58 -53 114 -58 125 -6 11 -31 79 -55 150 -136 388 -180 765 -140 1180 8 83 16 159 19 170 3 11 13 61 22 110 9 50 27 124 40 165 12 41 31 102 40 135 40 138 220 509 292 605 15 19 39 53 54 75 242 365 676 740 1059 913 24 11 76 34 114 52 70 32 212 87 250 97 11 3 72 20 135 39 272 78 667 112 980 84z"/> <path d="M943 4052 c-18 -18 -19 -272 -1 -290 17 -17 144 -16 151 1 9 25 -8 36 -58 39 l-50 3 0 40 c0 40 0 40 45 45 37 4 45 9 45 25 0 16 -8 21 -45 25 -42 5 -45 7 -48 37 l-3 32 53 3 c46 3 53 6 56 26 4 24 2 24 -82 26 -29 1 -55 -4 -63 -12z"/> <path d="M1157 4052 c-15 -17 -17 -37 -15 -158 3 -131 4 -139 23 -139 17 0 21 8 25 55 5 53 6 54 40 61 74 15 105 103 57 162 -30 37 -104 48 -130 19z m91 -54 c29 -29 7 -78 -35 -78 -21 0 -23 5 -23 45 0 40 2 45 23 45 13 0 28 -5 35 -12z"/> <path d="M1386 4048 c-9 -12 -16 -32 -16 -43 0 -11 -7 -41 -15 -67 -8 -27 -22 -69 -30 -95 -8 -27 -15 -58 -15 -70 0 -37 28 -27 50 17 18 35 25 40 55 40 30 0 36 -4 41 -27 8 -35 22 -53 40 -53 16 0 18 30 5 74 -5 17 -17 58 -26 91 -25 90 -49 148 -62 152 -6 2 -18 -6 -27 -19z m44 -139 c0 -32 -4 -39 -19 -39 -26 0 -31 20 -15 59 17 41 34 32 34 -20z"/> <path d="M1586 4040 c-40 -35 -53 -94 -41 -182 9 -63 56 -118 100 -118 58 0 105 49 105 109 0 47 -22 65 -78 62 -32 -1 -27 -45 6 -49 16 -3 22 -10 22 -28 0 -28 -29 -43 -66 -36 -48 9 -73 130 -37 182 34 50 53 52 94 8 25 -28 31 -30 39 -18 13 21 2 51 -29 77 -37 31 -74 29 -115 -7z"/> <path d="M4187 4052 c-14 -15 -17 -39 -17 -130 0 -100 2 -112 19 -122 24 -12 131 -13 150 -1 25 16 1 31 -48 31 -56 0 -76 17 -67 54 5 22 12 25 58 28 40 2 54 7 56 20 3 14 -6 17 -55 20 -53 3 -58 5 -61 27 -5 31 12 41 71 41 44 0 48 2 45 23 -3 20 -9 22 -69 25 -53 2 -68 -1 -82 -16z"/> <path d="M4430 4063 c-27 -10 -30 -26 -30 -146 0 -98 3 -119 16 -124 23 -9 37 11 38 54 1 35 3 38 36 43 19 4 47 14 63 24 23 16 27 25 27 66 0 44 -3 50 -34 69 -32 20 -84 26 -116 14z m90 -58 c26 -32 -13 -81 -47 -59 -35 22 -23 74 17 74 10 0 23 -7 30 -15z"/> <path d="M4651 4056 c-8 -9 -11 -55 -9 -137 l3 -124 67 0 c92 0 111 19 116 112 5 83 -7 117 -50 143 -38 23 -110 27 -127 6z m114 -61 c34 -33 35 -101 2 -138 -23 -27 -41 -32 -71 -21 -13 5 -16 23 -16 89 0 57 4 85 13 88 27 11 49 6 72 -18z"/> <path d="M4940 4054 c-38 -24 -60 -69 -60 -124 0 -68 24 -114 71 -135 33 -16 42 -16 71 -4 41 16 67 47 68 77 0 31 -25 28 -52 -8 -35 -48 -89 -35 -104 26 -10 40 5 113 26 124 30 16 47 12 81 -21 21 -21 35 -27 41 -21 17 17 0 56 -35 80 -39 26 -72 28 -107 6z"/> <path d="M1259 3618 c0 -7 0 -80 1 -161 1 -102 -2 -153 -11 -163 -9 -11 -58 -14 -273 -14 -275 0 -286 -2 -286 -45 0 -43 11 -45 291 -45 l267 0 6 -25 c4 -14 6 -215 6 -448 0 -232 0 -428 0 -434 0 -9 18 -13 55 -13 l55 0 2 458 3 457 284 5 c251 4 285 7 294 22 8 12 8 24 -1 42 l-11 26 -283 2 -283 3 -5 170 -5 170 -52 3 c-38 2 -53 -1 -54 -10z"/> <path d="M4577 3614 c-4 -4 -7 -78 -7 -165 0 -99 -4 -160 -11 -164 -5 -4 -128 -6 -273 -5 -291 1 -290 1 -284 -62 l3 -33 280 -5 c154 -3 281 -7 282 -8 2 -1 4 -206 5 -454 l3 -453 38 -3 c70 -6 67 -28 67 463 0 395 2 444 16 449 9 3 139 6 290 6 l274 0 6 26 c4 14 1 37 -5 50 l-11 25 -276 -1 c-152 -1 -280 2 -285 7 -5 5 -10 80 -11 168 l-3 160 -45 3 c-25 2 -49 0 -53 -4z"/> <path d="M3382 3258 c-18 -18 -15 -25 15 -32 30 -8 48 11 31 31 -13 16 -30 17 -46 1z"/> <path d="M2545 3198 c-3 -8 -4 -65 -3 -126 3 -119 19 -152 28 -57 3 30 9 56 14 58 5 1 24 -25 41 -58 28 -55 65 -85 65 -53 0 7 2 49 4 93 4 100 -3 145 -20 145 -10 0 -14 -17 -14 -64 0 -36 -4 -67 -10 -71 -5 -3 -23 23 -39 58 -33 71 -57 98 -66 75z"/> <path d="M3160 3203 c-36 -10 -55 -56 -55 -130 0 -61 3 -75 23 -96 31 -33 66 -41 101 -23 33 17 45 57 25 83 -13 19 -14 19 -30 -34 -5 -19 -49 -16 -67 5 -27 30 -23 113 6 141 27 24 53 20 62 -10 10 -31 35 -23 35 11 0 41 -50 68 -100 53z"/> <path d="M3344 3189 c-57 -63 -44 -205 21 -236 28 -14 38 -14 65 -3 34 14 70 79 70 125 0 30 -25 90 -48 118 -22 25 -84 23 -108 -4z m73 -27 c7 -4 18 -23 26 -42 21 -52 1 -124 -35 -128 -40 -5 -58 21 -58 85 0 73 29 109 67 85z"/> <path d="M2167 3193 c-4 -3 -7 -57 -7 -119 0 -87 3 -113 14 -117 19 -8 26 1 26 34 0 44 10 59 40 59 16 0 36 7 44 16 19 19 22 104 4 122 -13 13 -110 17 -121 5z m87 -39 c22 -22 20 -40 -6 -59 -21 -14 -24 -14 -35 2 -16 21 -16 46 -1 61 16 16 23 15 42 -4z"/> <path d="M2358 3193 c-9 -17 -8 -219 2 -233 13 -20 105 -23 121 -4 17 20 2 32 -46 36 -37 3 -40 5 -40 33 0 28 3 30 40 35 32 4 40 9 40 25 0 17 -7 20 -40 20 -38 0 -40 2 -40 30 0 28 3 30 45 35 25 3 45 10 45 15 0 12 -121 19 -127 8z"/> <path d="M2730 3187 c0 -7 10 -17 23 -22 20 -9 22 -18 25 -99 3 -92 12 -119 38 -109 11 4 14 26 14 92 0 93 3 102 38 120 38 20 15 31 -64 31 -53 0 -74 -4 -74 -13z"/> <path d="M2926 3178 c-10 -38 -7 -198 4 -218 8 -15 20 -19 58 -18 92 3 112 39 26 48 -47 5 -49 6 -49 35 0 28 3 30 40 35 32 4 40 9 40 25 0 15 -7 20 -30 21 -55 2 -56 3 -53 32 3 24 8 27 51 32 71 7 62 25 -14 28 -62 3 -67 1 -73 -20z"/> <path d="M3520 3186 c0 -8 13 -19 30 -24 l29 -11 3 -98 c2 -79 6 -98 18 -98 12 0 16 19 18 97 3 97 3 98 33 113 45 24 26 35 -57 35 -57 0 -74 -3 -74 -14z"/> <path d="M3717 3193 c-11 -11 -8 -231 3 -238 19 -12 102 -15 121 -4 32 17 16 34 -37 39 -47 5 -49 6 -49 35 0 27 3 30 40 35 27 3 41 10 43 23 2 9 -2 18 -10 18 -7 1 -20 3 -28 4 -8 1 -23 3 -32 4 -23 1 -24 46 -2 55 9 3 31 6 50 6 24 0 34 5 34 15 0 12 -14 15 -63 15 -35 0 -67 -3 -70 -7z"/> <path d="M2132 2858 c-6 -6 -12 -19 -12 -27 0 -9 -7 -37 -15 -63 -8 -27 -22 -69 -30 -95 -19 -60 -19 -89 -1 -96 22 -8 60 4 74 25 16 22 45 23 63 2 17 -21 55 -35 74 -28 19 8 19 51 1 101 -7 21 -21 65 -31 98 -9 33 -20 67 -25 75 -9 19 -81 25 -98 8z"/> <path d="M2347 2863 c-13 -12 -8 -248 6 -266 17 -23 171 -27 194 -4 24 23 7 37 -47 37 -63 0 -68 10 -68 127 0 50 -3 96 -6 102 -8 12 -69 15 -79 4z"/> <path d="M2600 2725 l0 -146 103 3 c96 3 102 4 105 25 3 20 -1 22 -55 25 l-58 3 -2 95 c-4 136 -5 140 -53 140 l-40 0 0 -145z"/> <path d="M2847 2863 c-10 -9 -8 -256 1 -271 6 -9 35 -12 108 -10 91 3 99 5 99 23 0 17 -8 20 -52 23 -54 3 -80 21 -69 47 4 11 20 15 56 15 87 0 79 56 -8 62 -36 2 -48 7 -50 21 -6 31 17 47 68 47 47 0 69 17 54 41 -6 10 -197 13 -207 2z"/> <path d="M3115 2858 c-3 -8 -4 -72 -3 -144 l3 -129 100 0 c95 0 100 1 103 22 3 20 -1 22 -55 25 l-58 3 -5 115 -5 115 -38 3 c-24 2 -39 -1 -42 -10z"/> <path d="M3367 2863 c-4 -3 -7 -57 -7 -119 l0 -113 33 -25 c48 -37 123 -36 167 0 l31 26 -3 117 -3 116 -40 0 -40 0 -3 -113 c-2 -93 -6 -114 -19 -119 -30 -12 -41 22 -36 108 7 111 1 129 -41 129 -18 0 -36 -3 -39 -7z"/> <path d="M3647 2864 c-4 -4 -7 -67 -7 -140 0 -124 1 -134 21 -144 16 -9 26 -8 45 5 24 16 25 17 22 148 l-3 132 -35 3 c-20 2 -39 0 -43 -4z"/> <path d="M3835 2848 c-14 -54 -39 -136 -51 -171 -17 -47 -18 -97 -1 -98 32 -3 53 4 69 22 21 25 54 24 68 -1 8 -15 21 -20 50 -20 36 0 40 3 40 25 0 13 -6 42 -14 62 -7 21 -21 65 -31 98 -31 107 -29 105 -79 105 -38 0 -46 -3 -51 -22z"/> <path d="M3015 2510 l-940 -5 0 -105 0 -105 949 -3 c592 -1 953 1 959 7 8 8 12 123 7 202 0 4 -8 8 -17 10 -10 2 -441 2 -958 -1z m-714 -76 c11 -14 13 -14 21 0 10 17 58 22 58 6 0 -5 -5 -21 -12 -35 -11 -24 -9 -29 12 -45 l25 -18 -28 -8 c-31 -7 -43 0 -49 31 -2 13 -12 21 -31 23 -15 2 -27 8 -27 13 0 5 -7 9 -16 9 -14 0 -14 -3 -4 -16 11 -13 10 -19 -8 -37 l-22 -21 0 50 c0 28 3 54 7 57 12 13 61 7 74 -9z m181 -6 c8 8 15 8 29 -1 14 -9 22 -8 37 6 20 18 57 23 66 8 3 -5 -8 -14 -24 -20 -23 -7 -30 -16 -30 -35 0 -21 5 -26 26 -26 16 0 24 -5 22 -12 -8 -22 -35 -20 -58 4 -20 21 -22 22 -31 6 -13 -24 -36 -23 -44 2 -3 11 -13 20 -20 20 -19 0 -38 37 -31 57 6 14 9 14 26 -2 15 -14 23 -16 32 -7z m236 5 c2 -9 -7 -13 -27 -13 -30 0 -39 9 -24 24 11 10 46 3 51 -11z m101 8 c7 -5 11 -14 7 -19 -4 -6 -1 -20 5 -30 21 -34 -17 -80 -44 -53 -8 8 -6 14 8 25 18 13 18 14 -3 27 -30 19 -29 59 2 59 6 0 17 -4 25 -9z m111 -5 c0 -7 -7 -19 -15 -26 -12 -10 -18 -10 -30 0 -25 21 -18 40 15 40 19 0 30 -5 30 -14z m83 -29 c22 -46 35 -47 39 -2 4 47 22 45 26 -2 2 -21 10 -42 18 -46 8 -4 14 -12 14 -17 0 -15 -46 -12 -87 5 -39 16 -69 19 -76 8 -2 -5 -2 -1 1 7 2 8 7 26 9 40 12 63 28 65 56 7z m240 28 c1 -5 -9 -12 -23 -13 -34 -5 -43 -16 -35 -41 4 -15 15 -21 36 -21 36 0 38 -17 4 -26 -52 -13 -88 62 -49 101 17 17 63 17 67 0z m337 -12 c15 -17 19 -28 12 -31 -7 -2 -12 -15 -12 -28 0 -28 -15 -32 -29 -7 -9 17 -11 16 -30 -1 -25 -23 -30 -19 -38 27 -8 52 1 67 40 67 24 0 40 -8 57 -27z m94 18 c7 -10 -17 -21 -45 -21 -19 0 -25 11 -12 23 9 10 51 8 57 -2z m-280 -16 c7 -19 -7 -57 -28 -74 -13 -11 -17 -10 -26 13 -10 27 -24 33 -35 16 -9 -15 -25 -2 -25 22 0 16 5 19 24 14 15 -4 28 0 36 9 16 19 46 19 54 0z m401 -30 c0 -46 -21 -58 -35 -20 -7 18 -7 33 1 46 16 31 34 17 34 -26z m-1051 17 c8 -14 -5 -52 -19 -52 -7 0 -16 -7 -19 -16 -7 -18 -47 -15 -54 4 -2 8 7 12 27 12 26 0 31 4 31 23 0 33 21 50 34 29z m986 -17 c0 -8 -4 -17 -10 -20 -6 -4 -10 5 -10 20 0 15 4 24 10 20 6 -3 10 -12 10 -20z m-1088 -17 c-15 -15 -24 -6 -16 16 5 12 10 14 17 7 8 -8 8 -14 -1 -23z m818 -22 c0 -16 -34 -31 -50 -21 -15 10 -12 23 8 28 32 9 42 7 42 -7z m209 -2 c3 -2 0 -9 -6 -15 -15 -15 -53 -2 -53 18 0 12 6 14 27 8 16 -4 30 -9 32 -11z"/> <path d="M3312 2179 c-18 -14 -22 -28 -22 -73 0 -52 2 -57 27 -67 14 -5 33 -9 41 -7 25 5 25 25 0 31 -21 6 -21 7 -4 26 10 11 15 25 11 31 -4 6 1 20 10 30 15 17 15 19 -13 32 -26 13 -31 13 -50 -3z"/> <path d="M2565 2170 c-12 -19 -8 -109 5 -124 16 -21 49 -20 57 0 3 9 15 19 27 23 16 6 23 3 31 -13 12 -24 46 -32 72 -17 16 9 15 11 -9 20 -31 12 -36 26 -12 35 10 4 14 12 10 23 -4 9 1 24 10 34 15 17 15 18 -9 24 -41 11 -62 2 -65 -27 l-3 -26 -32 29 c-31 29 -70 38 -82 19z m65 -59 c0 -23 -9 -31 -26 -24 -17 6 -18 25 -2 41 14 14 28 6 28 -17z"/> <path d="M2857 2162 c-10 -10 -17 -34 -17 -53 1 -61 58 -102 90 -63 8 8 22 20 32 25 15 8 20 5 28 -16 12 -32 45 -33 71 -2 24 28 27 117 4 117 -11 0 -15 -12 -15 -45 0 -32 -4 -45 -14 -45 -22 0 -39 28 -32 55 5 20 3 25 -14 25 -15 0 -20 -7 -20 -24 0 -30 -16 -42 -35 -26 -17 14 -35 5 -35 -16 0 -9 -6 -14 -12 -11 -7 2 -13 14 -13 27 0 17 7 26 25 30 14 3 26 14 28 23 5 24 -50 23 -71 -1z"/> <path d="M3170 2110 c0 -72 10 -87 36 -52 12 16 13 16 19 0 9 -24 31 -23 38 1 6 23 -3 111 -11 111 -3 0 -13 -7 -23 -16 -16 -14 -18 -14 -29 5 -20 38 -30 22 -30 -49z"/> <path d="M3414 2174 c-6 -3 -9 -30 -8 -67 l2 -62 36 -9 c47 -12 74 8 33 23 -28 11 -35 27 -16 33 13 4 39 75 31 83 -6 6 -62 5 -78 -1z"/> <path d="M3112 2108 c2 -38 8 -63 16 -66 9 -3 12 14 12 62 0 53 -3 66 -15 66 -13 0 -15 -11 -13 -62z"/> </g> </svg> 